<svg xmlns="http://www.w3.org/2000/svg" viewBox="0 0 127.5 166.9"><defs><style>.cls-7{fill:#fff;stroke-miterlimit:10;stroke-width:3px}.cls-4{fill:#42abe1}.cls-5{fill:#234694}.cls-6{fill:#234595}.cls-7{stroke:#42abe1}</style></defs><g id="Laag_2" data-name="Laag 2"><g id="Laag_1-2" data-name="Laag 1"><g id="Crypto"><path d="M58.4 20.4H24.5a4.7 4.7 0 0 0-3.4 1.5L2.1 44a3.3 3.3 0 0 0-.6 1.9v91a7.2 7.2 0 0 0 7.2 7.1h49.7z" stroke-width="3" stroke-miterlimit="10" stroke="#234595" fill="#fff"/><path d="M22.7 20.8v20.6a3.6 3.6 0 0 1-3.6 3.7H1.5" fill="none" stroke-width="3" stroke-miterlimit="10" stroke="#234595"/><path stroke="#1d1d1b" stroke-width="3" stroke-miterlimit="10" fill="#fff" d="M58.4 166.9V0"/><path class="cls-4" d="M82.7 39.8v-9.2h-18v18h12.9v-8.8h5z"/><path class="cls-5" d="M82.7 39.8v8.7h-5.1v5.2h9v-14h-4z"/><path class="cls-5" d="M77.6 39.8h5.1v8.8h-5.1zM75.2 65.5h22.5v21.6H75.2z"/><path class="cls-4" d="M91.4 62.7h14.4v13.8H91.4zM83 122.9h14.4v13.8H83z"/><path class="cls-5" d="M67.7 112.5H78v9.5H67.7zM101.8 122.3h10.3v9.5h-10.3z"/><path class="cls-4" d="M82.4 104h10.3v9.5H82.4z"/><path class="cls-5" d="M85.5 107h10.3v9.5H85.5z"/><path class="cls-4" d="M99.5 100h3.9v3.6h-3.9zM74.3 124h3.9v3.6h-3.9z"/><path class="cls-5" d="M110.9 57.3h11.3v6.4h-11.3z"/><path class="cls-4" d="M100.3 109.5h4.2v6.4h-4.2zM116.8 67.9h7.2v7.3h-7.2zM95.5 55.7h4.6v4.8h-4.6zM108.2 108.6h6.4v10.8h-6.4z"/><path class="cls-5" d="M92.2 33h4.6v4.8h-4.6zM97.7 40.8h9v9.5h-9z"/><path class="cls-4" d="M88.9 91.2H98v9.6h-9.1z"/><path class="cls-5" d="M109.2 98.7h6.6v6.9h-6.6zM120.9 71.9h6.6v6.9h-6.6z"/><path class="cls-4" d="M103.5 77.6h4.2v4.5h-4.2zM116.5 91.6h3.8v3.8h-3.8z"/><path class="cls-5" d="M109.5 31.2h12.1v12.7h-12.1z"/><path class="cls-4" d="M114.8 37.1h12.1v12.7h-12.1z"/><path class="cls-5" d="M111.7 84.1h7.4v5.5h-7.4zM111.1 107.5h7.4v5.5h-7.4z"/><path class="cls-4" d="M106.1 95.2h6.6v6.9h-6.6z"/><path class="cls-6" d="M19 79h39.4v-7H19c-2.4 0-4.4 1.6-4.4 3.5s2 3.5 4.4 3.5zM40.8 44.6h17.6v-7H40.8c-2.4 0-4.4 1.6-4.4 3.5s2 3.5 4.4 3.5zM19 63.8h39.4v-7H19c-2.4 0-4.4 1.6-4.4 3.5s2 3.5 4.4 3.5zM58.4 117.7H19c-2.4 0-4.4 1.6-4.4 3.5s2 3.5 4.4 3.5h39.4zM19 109.5h39.4v-7H19c-2.4 0-4.4 1.5-4.4 3.5s2 3.5 4.4 3.5zM19 94.2h39.4v-7H19c-2.4 0-4.4 1.6-4.4 3.5s2 3.5 4.4 3.5z"/><path class="cls-7" d="M58.4 166.9V0"/><circle class="cls-7" cx="58.4" cy="84.8" r="25.9" id="Circle"/><g id="Lock" stroke-miterlimit="10"><rect x="50.3" y="81.1" width="16.5" height="12.8" rx="4.5" ry="4.5" stroke-width="2" stroke="#42abe1" fill="#fff"/><path d="M54.8 81.1v-3.9a3.7 3.7 0 1 1 7.5 0v4" stroke-width="2" stroke="#42abe1" fill="none"/><path stroke="#fff" stroke-width=".5" fill="#42abe1" d="M57 85h3.2v5H57z"/></g><path class="cls-5" d="M82.1 133.8h4.6v4.8h-4.6z"/></g></g></g></svg>