<svg xmlns="http://www.w3.org/2000/svg" viewBox="0 0 127.49 166.9"><defs><style>.cls-1,.cls-3,.cls-7,.cls-8{fill:#fff;}.cls-1,.cls-2{stroke:#234595;}.cls-1,.cls-10,.cls-2,.cls-3,.cls-7,.cls-8,.cls-9{stroke-miterlimit:10;}.cls-1,.cls-2,.cls-3,.cls-7{stroke-width:3px;}.cls-2,.cls-9{fill:none;}.cls-3{stroke:#1d1d1b;}.cls-10,.cls-4{fill:#42abe1;}.cls-5{fill:#234694;}.cls-6{fill:#234595;}.cls-7,.cls-8,.cls-9{stroke:#42abe1;}.cls-8,.cls-9{stroke-width:2px;}.cls-10{stroke:#fff;stroke-width:0.5px;}</style></defs><title>Cryptography_1</title><g id="Laag_2" data-name="Laag 2"><g id="Laag_1-2" data-name="Laag 1"><path class="cls-1" d="M58.38,20.43H24.5a4.65,4.65,0,0,0-3.37,1.42L2.08,44a3.25,3.25,0,0,0-.58,1.86v91A7.21,7.21,0,0,0,8.72,144H58.38Z"/><path class="cls-2" d="M22.7,20.79V41.43a3.64,3.64,0,0,1-3.63,3.64H1.5"/><line class="cls-3" x1="58.38" y1="166.9" x2="58.38"/><polygon class="cls-4" points="82.65 39.78 82.65 30.55 64.66 30.55 64.66 48.53 77.57 48.53 77.57 39.78 82.65 39.78"/><polygon class="cls-5" points="82.65 39.78 82.65 48.53 77.57 48.53 77.57 53.66 86.56 53.66 86.56 39.78 82.65 39.78"/><rect class="cls-5" x="77.57" y="39.78" width="5.08" height="8.76"/><rect class="cls-5" x="75.23" y="65.48" width="22.54" height="21.55"/><rect class="cls-4" x="91.41" y="62.67" width="14.44" height="13.81"/><rect class="cls-4" x="83.02" y="122.88" width="14.44" height="13.81"/><rect class="cls-5" x="67.7" y="112.5" width="10.28" height="9.53"/><rect class="cls-5" x="101.78" y="122.35" width="10.28" height="9.53"/><rect class="cls-4" x="82.39" y="104.05" width="10.28" height="9.53"/><rect class="cls-5" x="85.5" y="107.04" width="10.28" height="9.53"/><rect class="cls-4" x="99.46" y="99.95" width="3.94" height="3.65"/><rect class="cls-4" x="74.25" y="124.04" width="3.94" height="3.65"/><rect class="cls-5" x="110.89" y="57.27" width="11.26" height="6.37"/><rect class="cls-4" x="100.32" y="109.49" width="4.22" height="6.37"/><rect class="cls-4" x="116.81" y="67.93" width="7.16" height="7.31"/><rect class="cls-4" x="95.55" y="55.74" width="4.6" height="4.84"/><rect class="cls-4" x="108.24" y="108.6" width="6.42" height="10.78"/><rect class="cls-5" x="92.16" y="33.01" width="4.6" height="4.84"/><rect class="cls-5" x="97.65" y="40.76" width="9.02" height="9.5"/><rect class="cls-4" x="88.9" y="91.17" width="9.06" height="9.55"/><rect class="cls-5" x="109.2" y="98.69" width="6.59" height="6.94"/><rect class="cls-5" x="120.9" y="71.9" width="6.59" height="6.94"/><rect class="cls-4" x="103.5" y="77.61" width="4.18" height="4.53"/><rect class="cls-4" x="116.47" y="91.56" width="3.84" height="3.77"/><rect class="cls-5" x="109.52" y="31.2" width="12.06" height="12.71"/><rect class="cls-4" x="114.83" y="37.15" width="12.06" height="12.71"/><rect class="cls-5" x="111.74" y="84.12" width="7.41" height="5.45"/><rect class="cls-5" x="111.12" y="107.46" width="7.41" height="5.45"/><rect class="cls-4" x="106.13" y="95.18" width="6.59" height="6.94"/><path class="cls-6" d="M19,79h39.4V72H19c-2.42,0-4.38,1.57-4.38,3.5S16.56,79,19,79Z"/><path class="cls-6" d="M40.79,44.63H58.38v-7H40.79c-2.41,0-4.37,1.57-4.37,3.5S38.38,44.63,40.79,44.63Z"/><path class="cls-6" d="M19,63.79h39.4v-7H19c-2.42,0-4.38,1.57-4.38,3.5S16.56,63.79,19,63.79Z"/><path class="cls-6" d="M58.38,117.7H19c-2.42,0-4.38,1.57-4.38,3.5s2,3.5,4.38,3.5h39.4Z"/><path class="cls-6" d="M19,109.47h39.4v-7H19c-2.42,0-4.38,1.57-4.38,3.5S16.56,109.47,19,109.47Z"/><path class="cls-6" d="M19,94.24h39.4v-7H19c-2.42,0-4.38,1.57-4.38,3.5S16.56,94.24,19,94.24Z"/><line class="cls-7" x1="58.38" y1="166.9" x2="58.38"/><circle class="cls-7" cx="58.38" cy="84.78" r="25.92"/><rect class="cls-8" x="50.32" y="81.12" width="16.48" height="12.82" rx="4.45" ry="4.45"/><path class="cls-9" d="M54.83,81.12V77.23a3.73,3.73,0,1,1,7.46,0v3.89"/><rect class="cls-10" x="56.96" y="85.01" width="3.19" height="5.04"/><rect class="cls-5" x="82.11" y="133.84" width="4.6" height="4.84"/></g></g></svg>