<svg xmlns="http://www.w3.org/2000/svg" xmlns:xlink="http://www.w3.org/1999/xlink" viewBox="0 0 686.81 932.78"><defs><style>.cls-1{fill:url(#Naamloos_verloop_50);}</style><linearGradient id="Naamloos_verloop_50" x1="464.65" y1="322.94" x2="251.75" y2="888.68" gradientUnits="userSpaceOnUse"><stop offset="0" stop-color="#2a4aff"/><stop offset="1" stop-color="#0319be"/></linearGradient></defs><title>Custom-Shape</title><g id="Laag_2" data-name="Laag 2"><g id="Laag_1-2" data-name="Laag 1"><path class="cls-1" d="M686.81,343V620a39.66,39.66,0,0,0-5.09,2.67q-64.77,46.44-129.48,93Q421,809.92,289.67,904.22C259.39,926,225.81,936,188.57,931.89c-42.62-4.66-76.91-24.54-101.18-59.73C73.91,852.62,61,832.66,48.27,812.62q-11.72-18.4-23.4-36.83C-4,730.56-7.87,683.21,14,634.06Q135.54,360.24,257.29,86.48C277.71,40.61,313,12.9,362.2,2.86,367.7,1.74,373.27.94,378.81,0h18c5.89.88,11.82,1.55,17.66,2.68,41.5,8,73.07,30.42,95.78,65.87q82.5,128.82,165.21,257.51C679.13,331.78,683,337.35,686.81,343Z"/></g></g></svg>