<svg xmlns="http://www.w3.org/2000/svg" viewBox="0 0 299.75 161.88">
   <defs>
      <style>.cls-1{fill:#fff;}.cls-1,.cls-8{stroke:#1d1d1b;stroke-miterlimit:10;}.cls-2{font-size:10px;}.cls-2,.cls-4,.cls-5,.cls-7,.cls-9{fill:#1d1d1b;}.cls-2,.cls-4,.cls-7{font-family:SFProDisplay-Bold, SF Pro Display;font-weight:700;}.cls-3{letter-spacing:-0.01em;}.cls-4{font-size:11px;}.cls-5{font-size:8px;font-family:SFProDisplay-Regular, SF Pro Display;}.cls-6{letter-spacing:-0.02em;}.cls-7{font-size:12px;}.cls-8{fill:none;}.cls-10{letter-spacing:-0.07em;}.cls-11{letter-spacing:-0.01em;}</style>
   </defs>
   <title>MerkleTree</title>
   <g id="Laag_2" data-name="Laag 2">
      <g id="Laag_1-2" data-name="Laag 1">
         <rect class="cls-1" x="52.66" y="56.04" width="48" height="17"/>
         <text class="cls-2" transform="translate(59.73 67.95)">
            <tspan class="cls-3">H</tspan>
            <tspan x="7.18" y="0">ash </tspan>
         </text>
         <text class="cls-4" transform="translate(85.36 71.62) scale(0.58)">AB</text>
         <rect class="cls-1" x="128.38" y="14.44" width="48.19" height="17.01"/>
         <text class="cls-2" transform="translate(130.75 26.07)">
            <tspan class="cls-3">H</tspan>
            <tspan x="7.18" y="0">ash </tspan>
         </text>
         <text class="cls-4" transform="translate(156.38 29.74) scale(0.58)">ABCB</text>
         <text class="cls-5" transform="translate(133.23 6.82)">
            Merkle 
            <tspan class="cls-6" x="24.46" y="0">r</tspan>
            <tspan x="26.73" y="0">oot</tspan>
         </text>
         <rect class="cls-1" x="11.73" y="98.15" width="48" height="17"/>
         <text class="cls-2" transform="translate(20.66 109.39)">
            <tspan class="cls-3">H</tspan>
            <tspan x="7.18" y="0">ash </tspan>
         </text>
         <text class="cls-4" transform="translate(46.29 113.05) scale(0.58)">A</text>
         <rect class="cls-1" x="93.73" y="98.15" width="48" height="17"/>
         <text class="cls-2" transform="translate(102.45 110.09)">
            <tspan class="cls-3">H</tspan>
            <tspan x="7.18" y="0">ash </tspan>
         </text>
         <text class="cls-7" transform="translate(128.08 114.09) scale(0.58)">B</text>
         <line class="cls-8" x1="59.23" y1="106.15" x2="93.23" y2="106.15"/>
         <line class="cls-8" x1="76.73" y1="85.24" x2="76.73" y2="105.65"/>
         <polygon class="cls-9" points="74.23 85.97 76.72 81.65 79.22 85.97 74.23 85.97"/>
         <rect class="cls-1" x="202.39" y="56.04" width="48" height="17"/>
         <text class="cls-2" transform="translate(209.21 67.95)">
            <tspan class="cls-3">H</tspan>
            <tspan x="7.18" y="0">ash </tspan>
         </text>
         <text class="cls-4" transform="translate(234.84 71.62) scale(0.58)">CD</text>
         <rect class="cls-1" x="161.46" y="98.15" width="48" height="17"/>
         <text class="cls-2" transform="translate(170.33 109.39)">
            <tspan class="cls-3">H</tspan>
            <tspan x="7.18" y="0">ash </tspan>
         </text>
         <text class="cls-4" transform="translate(195.95 113.05) scale(0.58)">C</text>
         <rect class="cls-1" x="243.46" y="98.15" width="48" height="17"/>
         <text class="cls-2" transform="translate(251.98 110.09)">
            <tspan class="cls-3">H</tspan>
            <tspan x="7.18" y="0">ash </tspan>
         </text>
         <text class="cls-7" transform="translate(277.61 114.09) scale(0.58)">D</text>
         <line class="cls-8" x1="208.96" y1="106.15" x2="242.96" y2="106.15"/>
         <line class="cls-8" x1="226.46" y1="85.24" x2="226.46" y2="105.65"/>
         <polygon class="cls-9" points="223.97 85.97 226.46 81.65 228.95 85.97 223.97 85.97"/>
         <line class="cls-8" x1="100.17" y1="65.15" x2="202.88" y2="65.15"/>
         <line class="cls-8" x1="152.02" y1="44.24" x2="152.02" y2="64.65"/>
         <polygon class="cls-9" points="149.53 44.97 152.02 40.65 154.52 44.97 149.53 44.97"/>
         <rect class="cls-1" x="2.34" y="134.87" width="63.64" height="17.01"/>
         <text class="cls-2" transform="translate(5.85 147.01)">
            <tspan class="cls-10">T</tspan>
            <tspan class="cls-11" x="5.36" y="0">r</tspan>
            <tspan x="8.87" y="0">ansactie A</tspan>
         </text>
         <line class="cls-8" x1="34.16" y1="124.28" x2="34.16" y2="132.27"/>
         <polygon class="cls-9" points="31.66 125.01 34.16 120.69 36.65 125.01 31.66 125.01"/>
         <rect class="cls-1" x="84.23" y="134.87" width="63.64" height="17.01"/>
         <text class="cls-2" transform="translate(87.99 147.01)">
            <tspan class="cls-10">T</tspan>
            <tspan class="cls-11" x="5.36" y="0">r</tspan>
            <tspan x="8.87" y="0">ansactie B</tspan>
         </text>
         <line class="cls-8" x1="116.05" y1="124.28" x2="116.05" y2="132.27"/>
         <polygon class="cls-9" points="113.55 125.01 116.05 120.69 118.54 125.01 113.55 125.01"/>
         <rect class="cls-1" x="152.27" y="134.87" width="63.64" height="17.01"/>
         <text class="cls-2" transform="translate(155.67 147.01)">
            <tspan class="cls-10">T</tspan>
            <tspan class="cls-11" x="5.36" y="0">r</tspan>
            <tspan x="8.87" y="0">ansactie C</tspan>
         </text>
         <line class="cls-8" x1="184.09" y1="124.28" x2="184.09" y2="132.27"/>
         <polygon class="cls-9" points="181.6 125.01 184.09 120.69 186.59 125.01 181.6 125.01"/>
         <rect class="cls-1" x="233.78" y="134.87" width="63.64" height="17.01"/>
         <text class="cls-2" transform="translate(237.23 147.01)">
            <tspan class="cls-10">T</tspan>
            <tspan class="cls-11" x="5.36" y="0">r</tspan>
            <tspan x="8.87" y="0">ansactie D</tspan>
         </text>
         <line class="cls-8" x1="265.6" y1="124.28" x2="265.6" y2="132.27"/>
         <polygon class="cls-9" points="263.1 125.01 265.6 120.69 268.09 125.01 263.1 125.01"/>
      </g>
   </g>
</svg>