<svg xmlns="http://www.w3.org/2000/svg" viewBox="0 0 376.13 311.74"><defs><style>.cls-1{fill:#e2e1de;}</style></defs><title>NavigationBackgorund</title><g id="Laag_2" data-name="Laag 2"><g id="Laag_1-2" data-name="Laag 1"><path class="cls-1" d="M0,117V90c1.3-7.8,1.47-15.72,4.33-23.34,9-23.93,26.52-36.59,51.27-40.39,20.93-3.21,41.13.94,61.15,6.17,25.34,6.62,48.95,3.06,71.64-9.86a211.9,211.9,0,0,1,47.5-19.4C242.68,1.27,249.64,1,256.59.5c1.63-.2,1.8-.23,5.41-.5h20c7.31,1.24,14.81.87,22,3.64,27.49,10.63,45.26,30.93,57.13,57.07,10.1,22.23,13.1,46,14.4,70a397.46,397.46,0,0,1,0,45.4c-.85,14.13-4,27.75-10.88,40.2-11.11,20.23-29.63,29.1-53.3,26-12.05-1.6-24.14-3.41-36.28-3.42a216.46,216.46,0,0,0-57.28,7.54c-33.16,9-63.15,24.75-92.2,42.62q-13.83,8.51-27.79,16.82c-16.66,10-38.15,7.47-52-9.48-10.8-13.24-18.38-28.14-24.22-44-11.09-30.06-16.92-61.3-19.89-93.08C.75,149.59.46,139.75.5,129.94V124.2C.26,121.81.47,122.32,0,117Z"/></g></g></svg>